#!OML:ASF F:\VICON\USERDATA\INSTALL\rory3\rory3.ASF
:FULLY-SPECIFIED
:DEGREES
158
root -5.1852 18.601 -20.1971 191.28 39.2137 -134.33
lowerback 25.7135 -12.1286 11.4457
upperback 2.48608 -10.5592 7.61307
thorax -11.2086 -4.76116 5.659
lowerneck -3.43017 -17.4075 -16.1682
upperneck 5.48599 -23.0284 8.09303
head 4.91879 -11.4446 3.11601
rclavicle -2.55438e-014 2.38542e-015
rhumerus -122.658 -76.6404 112.726
rradius 14.2056
rwrist 40.3237
rhand -13.5855 12.0604
rfingers 7.12502
rthumb 12.5288 -17.5439
lclavicle -2.55438e-014 2.38542e-015
lhumerus -114.576 -200.589 215.489
lradius 31.7152
lwrist -8.55206
lhand -4.02986 19.4419
lfingers 7.12502
lthumb 21.7253 48.2428
rfemur -178.202 16.9885 95.6088
rtibia 38.8076
rfoot -147.453 -117.457
rtoes 41.8362
lfemur 25.0473 -11.6556 4.61043
ltibia 8.76593
lfoot -20.5446 46.201
ltoes 23.889
159
root -5.31347 18.5745 -20.2724 192.201 40.6509 -134.721
lowerback 25.3492 -12.2554 11.2188
upperback 2.17089 -10.9491 7.3645
thorax -11.4072 -4.9823 5.63752
lowerneck -4.12683 -17.4949 -15.6095
upperneck 6.54272 -23.1964 8.54137
head 5.37468 -11.481 3.0449
rclavicle 1.61214e-013 -7.95139e-014
rhumerus -132.021 -76.6381 121.036
rradius 13.8246
rwrist 43.4719
rhand -13.1594 11.8717
rfingers 7.12502
rthumb 12.9395 -17.7071
lclavicle 1.61214e-013 -7.95139e-014
lhumerus -117.375 -201.786 212.765
lradius 29.9197
lwrist -13.8986
lhand -4.20739 19.1285
lfingers 7.12502
lthumb 21.5548 47.949
rfemur -179.202 16.4532 94.9539
rtibia 38.325
rfoot -146.168 -117.774
rtoes 41.5481
lfemur 24.6872 -10.4704 3.05034
ltibia 8.92426
lfoot -21.1979 45.9962
ltoes 22.1818
160
root -5.37878 18.5223 -20.2907 193.667 41.5518 -133.848
lowerback 25.0561 -12.0193 12.166
upperback 2.01476 -10.3471 7.59865
thorax -11.5425 -4.72608 5.18982
lowerneck -3.53203 -18.1742 -17.4262
upperneck 6.64625 -24.2455 9.7918
head 5.80633 -11.9893 3.46613
rclavicle 1.0138e-014 1.59028e-014
rhumerus -109.045 -78.4137 97.3847
rradius 13.9845
rwrist 38.7843
rhand -12.9985 9.6794
rfingers 7.12502
rthumb 13.0947 -19.8895
lclavicle 1.0138e-014 1.59028e-014
lhumerus -118.044 -202.306 213.063
lradius 28.264
lwrist -18.8988
lhand -3.93459 19.6211
lfingers 7.12502
lthumb 21.8168 48.4113
rfemur -180.472 16.1402 95.4135
rtibia 38.0754
rfoot -144.101 -117.947
rtoes 41.829
lfemur 24.3923 -9.87022 3.02375
ltibia 9.1678
lfoot -19.4039 46.2469
ltoes 17.164
161
root -5.43969 18.4829 -20.3269 195.735 42.9561 -132.648
lowerback 24.4781 -12.1654 13.2332
upperback 1.73668 -10.3287 7.61634
thorax -11.7319 -4.77145 4.65025
lowerneck -2.16836 -18.0919 -19.4728
upperneck 5.73459 -24.4347 11.9024
head 5.85399 -12.085 4.39764
rclavicle 6.15239e-014 -4.13472e-014
rhumerus -95.6537 -79.6702 82.6069
rradius 13.9669
rwrist 37.224
rhand -12.6049 8.26123
rfingers 7.12502
rthumb 13.474 -21.2829
lclavicle 6.15239e-014 -4.13472e-014
lhumerus -121.247 -202.876 210.193
lradius 27.4554
lwrist -21.7874
lhand -3.42004 20.8727
lfingers 7.12502
lthumb 22.3108 49.6046
rfemur -181.073 15.7952 96.1157
rtibia 37.7433
rfoot -142.573 -118.074
rtoes 42.0311
lfemur 23.9985 -8.61814 3.08717
ltibia 9.60118
lfoot -19.5397 45.5531
ltoes 14.8879
162
root -5.50174 18.4468 -20.357 197.74 44.5646 -131.732
lowerback 23.6245 -12.0276 13.9979
upperback 2.00243 -10.1796 7.34021
thorax -11.8941 -4.70259 4.11523
lowerneck -1.87363 -18.3637 -20.6899
upperneck 6.46695 -25.0243 13.1317
head 6.44917 -12.3564 4.76133
rclavicle -1.49089e-015 -4.45278e-014
rhumerus -103.612 -80.0194 89.5163
rradius 13.8018
rwrist 39.5621
rhand -11.4442 8.58631
rfingers 7.12502
rthumb 14.5925 -20.8803
lclavicle -1.49089e-015 -4.45278e-014
lhumerus -125.662 -202.82 205.284
lradius 27.7069
lwrist -22.0437
lhand -2.84548 22.1948
lfingers 7.12502
lthumb 22.8623 50.8597
rfemur -181.385 15.8697 96.7973
rtibia 37.5286
rfoot -141.821 -117.536
rtoes 42.0007
lfemur 23.2506 -7.1903 2.82806
ltibia 10.5361
lfoot -19.6643 44.6335
ltoes 12.4872
163
root -5.56087 18.4133 -20.38 199.974 46.2401 -130.9
lowerback 22.3774 -11.6838 14.8391
upperback 1.98368 -9.862 7.09705
thorax -11.4244 -4.63417 3.08038
lowerneck -2.46463 -18.9858 -18.7206
upperneck 6.98193 -25.6995 11.4592
head 6.32501 -12.6827 3.89506
rclavicle 6.26172e-015 2.06736e-014
rhumerus -95.3415 -80.2676 79.8099
rradius 13.8089
rwrist 38.3672
rhand -10.7437 7.75705
rfingers 7.12502
rthumb 15.2673 -21.6595
lclavicle 6.26172e-015 2.06736e-014
lhumerus -129.176 -202.523 200.901
lradius 27.5776
lwrist -21.8324
lhand -2.45753 22.89
lfingers 7.12502
lthumb 23.2345 51.5084
rfemur -181.441 17.3807 97.8922
rtibia 37.3666
rfoot -141.943 -115.579
rtoes 41.8754
lfemur 22.4714 -6.4987 2.13393
ltibia 11.0479
lfoot -20.2968 44.3555
ltoes 10.0332
164
root -5.61647 18.3857 -20.4007 202.48 47.9682 -129.783
lowerback 21.2159 -11.0413 15.7601
upperback 1.92061 -9.12151 6.8781
thorax -11.0023 -4.36631 1.90997
lowerneck -2.64857 -19.686 -17.1703
upperneck 6.99767 -26.6254 10.7453
head 6.18229 -13.1177 3.37592
rclavicle 2.49475e-014 -3.02153e-014
rhumerus -77.8155 -79.1852 60.9476
rradius 13.9711
rwrist 35.0205
rhand -9.5983 6.37415
rfingers 7.12502
rthumb 16.3704 -22.955
lclavicle 2.49475e-014 -3.02153e-014
lhumerus -132.515 -201.664 196.749
lradius 27.7999
lwrist -20.8303
lhand -2.03739 23.6059
lfingers 7.12502
lthumb 23.6375 52.1728
rfemur -181.236 18.2247 99.0005
rtibia 37.0478
rfoot -141.953 -114.257
rtoes 41.8307
lfemur 21.7113 -5.93811 1.50111
ltibia 11.4961
lfoot -20.2836 44.2419
ltoes 7.14825
165
root -5.66447 18.3639 -20.4198 205.255 49.4213 -127.995
lowerback 20.61 -10.7727 16.7922
upperback 1.64766 -8.61623 7.00162
thorax -11.0816 -4.18739 1.29437
lowerneck -1.68392 -19.6887 -15.9843
upperneck 5.57788 -26.6859 10.6062
head 5.41722 -13.182 3.39444
rclavicle -4.53229e-014 6.71892e-014
rhumerus -71.969 -79.1851 54.3472
rradius 13.7686
rwrist 34.6488
rhand -8.69398 5.5494
rfingers 7.12502
rthumb 17.241 -23.7058
lclavicle -4.53229e-014 6.71892e-014
lhumerus -134.916 -201.374 195.505
lradius 26.8853
lwrist -22.6611
lhand -1.82725 23.9672
lfingers 7.12502
lthumb 23.8391 52.5079
rfemur -39.5993 -18.6248 -79.3416
rtibia 36.6388
rfoot -79.9004 -51.6997
rtoes 42.1256
lfemur 21.0599 -5.52643 1.37411
ltibia 12.1663
lfoot -19.578 44.2519
ltoes 3.94397
166
root -5.7082 18.3418 -20.4387 207.095 51.6758 -128.024
lowerback 19.6197 -10.004 16.4336
upperback 1.18712 -7.97166 6.91826
thorax -10.9606 -3.94217 1.05142
lowerneck -2.40545 -20.6002 -18.0106
upperneck 7.83409 -27.9992 11.1158
head 6.75787 -13.7746 3.28513
rclavicle 3.67752e-015 6.08281e-014
rhumerus -35.4719 -70.0753 16.432
rradius 13.9115
rwrist 22.3276
rhand -8.2936 3.59265
rfingers 7.12502
rthumb 17.6263 -25.6284
lclavicle 3.67752e-015 6.08281e-014
lhumerus -137.347 -201.13 194.905
lradius 26.0589
lwrist -24.4126
lhand -3.05048 22.8348
lfingers 7.12502
lthumb 22.6655 51.5239
rfemur -39.5291 -20.6357 -78.7534
rtibia 35.9828
rfoot -76.4047 -52.7027
rtoes 42.5664
lfemur 19.9851 -5.01614 -0.505124
ltibia 12.882
lfoot -20.2645 44.2434
ltoes 3.25544
167
root -5.72118 18.3019 -20.4105 209.053 54.2792 -128.261
lowerback 18.3182 -9.0909 16.0178
upperback 0.680128 -7.31741 6.3059
thorax -10.769 -3.73146 0.225974
lowerneck -2.08104 -20.9269 -17.3913
upperneck 8.398 -28.6321 11.4054
head 6.93652 -14.0529 3.20055
rclavicle -5.06901e-015 -1.98785e-014
rhumerus -34.0726 -68.6519 13.8457
rradius 13.7981
rwrist 21.0544
rhand -7.16131 3.35067
rfingers 7.12502
rthumb 18.7157 -25.769
lclavicle -5.06901e-015 -1.98785e-014
lhumerus -139.833 -200.227 193.285
lradius 25.5851
lwrist -24.9821
lhand -3.50143 22.9247
lfingers 7.12502
lthumb 22.2327 51.666
rfemur -39.9457 -22.3669 -78.7205
rtibia 35.5441
rfoot -72.9435 -54.1744
rtoes 42.2604
lfemur 18.8869 -4.35019 -2.54604
ltibia 13.1744
lfoot -21.927 43.919
ltoes 2.9482
168
root -5.77785 18.279 -20.4042 212.739 56.2728 -125.974
lowerback 17.9548 -8.55818 16.2622
upperback 0.177556 -6.59666 6.43651
thorax -11.0706 -3.44861 0.020123
lowerneck -1.79732 -21.0151 -17.2608
upperneck 8.84997 -28.8618 11.5229
head 7.0713 -14.1574 3.18668
rclavicle 1.35671e-014 -6.55989e-014
rhumerus -33.17 -69.4052 12.1056
rradius 14.0161
rwrist 21.8571
rhand -5.70583 3.48332
rfingers 7.12502
rthumb 20.1151 -25.4953
lclavicle 1.35671e-014 -6.55989e-014
lhumerus -143.475 -199.22 191.415
lradius 25.332
lwrist -24.9535
lhand -3.46371 23.7152
lfingers 7.12502
lthumb 22.2689 52.4521
rfemur -40.5105 -22.3633 -77.1212
rtibia 34.6877
rfoot -71.5814 -54.6105
rtoes 42.4968
lfemur 17.8656 -3.60429 -3.00529
ltibia 13.6486
lfoot -24.2152 43.1973
ltoes 3.43999
